<mxfile host="app.diagrams.net" modified="2023-07-17T09:02:29.974Z" agent="Mozilla/5.0 (Macintosh; Intel Mac OS X 10_15_7) AppleWebKit/537.36 (KHTML, like Gecko) Chrome/114.0.0.0 Safari/537.36" etag="6BXcGAEJKFPOTPxv_mvF" version="21.6.2" type="github">
  <diagram name="Page-1" id="929967ad-93f9-6ef4-fab6-5d389245f69c">
    <mxGraphModel dx="1306" dy="836" grid="1" gridSize="10" guides="1" tooltips="1" connect="1" arrows="1" fold="1" page="1" pageScale="1.5" pageWidth="1169" pageHeight="826" background="none" math="0" shadow="0">
      <root>
        <mxCell id="0" style=";html=1;" />
        <mxCell id="1" style=";html=1;" parent="0" />
        <mxCell id="VyEOUDzku1vB1zVTzXU4-28" value="" style="group" vertex="1" connectable="0" parent="1">
          <mxGeometry x="590" y="260" width="480" height="328" as="geometry" />
        </mxCell>
        <mxCell id="VyEOUDzku1vB1zVTzXU4-1" value="应用程序(AP)" style="rounded=0;whiteSpace=wrap;html=1;fillColor=#fff2cc;strokeColor=#d6b656;" vertex="1" parent="VyEOUDzku1vB1zVTzXU4-28">
          <mxGeometry width="480" height="70" as="geometry" />
        </mxCell>
        <mxCell id="VyEOUDzku1vB1zVTzXU4-25" style="edgeStyle=orthogonalEdgeStyle;rounded=0;orthogonalLoop=1;jettySize=auto;html=1;exitX=0.75;exitY=0;exitDx=0;exitDy=0;startArrow=classic;startFill=1;" edge="1" parent="VyEOUDzku1vB1zVTzXU4-28" source="VyEOUDzku1vB1zVTzXU4-2">
          <mxGeometry relative="1" as="geometry">
            <mxPoint x="155" y="70" as="targetPoint" />
          </mxGeometry>
        </mxCell>
        <mxCell id="VyEOUDzku1vB1zVTzXU4-2" value="资源管理器(RM)" style="rounded=0;whiteSpace=wrap;html=1;fillColor=#d5e8d4;strokeColor=#82b366;" vertex="1" parent="VyEOUDzku1vB1zVTzXU4-28">
          <mxGeometry x="50" y="160" width="140" height="120" as="geometry" />
        </mxCell>
        <mxCell id="VyEOUDzku1vB1zVTzXU4-24" style="edgeStyle=orthogonalEdgeStyle;rounded=0;orthogonalLoop=1;jettySize=auto;html=1;exitX=0.5;exitY=0;exitDx=0;exitDy=0;entryX=0.229;entryY=1.014;entryDx=0;entryDy=0;entryPerimeter=0;startArrow=classic;startFill=1;" edge="1" parent="VyEOUDzku1vB1zVTzXU4-28" source="VyEOUDzku1vB1zVTzXU4-3" target="VyEOUDzku1vB1zVTzXU4-1">
          <mxGeometry relative="1" as="geometry" />
        </mxCell>
        <mxCell id="VyEOUDzku1vB1zVTzXU4-3" value="资源管理器(RM)" style="rounded=0;whiteSpace=wrap;html=1;fillColor=#d5e8d4;strokeColor=#82b366;" vertex="1" parent="VyEOUDzku1vB1zVTzXU4-28">
          <mxGeometry x="40" y="180" width="140" height="120" as="geometry" />
        </mxCell>
        <mxCell id="VyEOUDzku1vB1zVTzXU4-19" style="edgeStyle=orthogonalEdgeStyle;rounded=0;orthogonalLoop=1;jettySize=auto;html=1;exitX=0.25;exitY=0;exitDx=0;exitDy=0;entryX=0.135;entryY=1.014;entryDx=0;entryDy=0;entryPerimeter=0;startArrow=classic;startFill=1;" edge="1" parent="VyEOUDzku1vB1zVTzXU4-28" source="VyEOUDzku1vB1zVTzXU4-4" target="VyEOUDzku1vB1zVTzXU4-1">
          <mxGeometry relative="1" as="geometry" />
        </mxCell>
        <mxCell id="VyEOUDzku1vB1zVTzXU4-4" value="资源管理器(RM)" style="rounded=0;whiteSpace=wrap;html=1;fillColor=#d5e8d4;strokeColor=#82b366;" vertex="1" parent="VyEOUDzku1vB1zVTzXU4-28">
          <mxGeometry x="30" y="200" width="140" height="120" as="geometry" />
        </mxCell>
        <mxCell id="VyEOUDzku1vB1zVTzXU4-5" value="事务管理器(TM)" style="rounded=0;whiteSpace=wrap;html=1;fillColor=#d5e8d4;strokeColor=#82b366;" vertex="1" parent="VyEOUDzku1vB1zVTzXU4-28">
          <mxGeometry x="280" y="160" width="160" height="160" as="geometry" />
        </mxCell>
        <mxCell id="VyEOUDzku1vB1zVTzXU4-14" style="edgeStyle=orthogonalEdgeStyle;rounded=0;orthogonalLoop=1;jettySize=auto;html=1;exitX=0.75;exitY=1;exitDx=0;exitDy=0;entryX=0.5;entryY=0;entryDx=0;entryDy=0;" edge="1" parent="VyEOUDzku1vB1zVTzXU4-28" source="VyEOUDzku1vB1zVTzXU4-1" target="VyEOUDzku1vB1zVTzXU4-5">
          <mxGeometry relative="1" as="geometry" />
        </mxCell>
        <mxCell id="VyEOUDzku1vB1zVTzXU4-15" style="edgeStyle=orthogonalEdgeStyle;rounded=0;orthogonalLoop=1;jettySize=auto;html=1;exitX=1;exitY=0.25;exitDx=0;exitDy=0;entryX=0.006;entryY=0.188;entryDx=0;entryDy=0;entryPerimeter=0;startArrow=classic;startFill=1;" edge="1" parent="VyEOUDzku1vB1zVTzXU4-28" source="VyEOUDzku1vB1zVTzXU4-2" target="VyEOUDzku1vB1zVTzXU4-5">
          <mxGeometry relative="1" as="geometry" />
        </mxCell>
        <mxCell id="VyEOUDzku1vB1zVTzXU4-16" style="edgeStyle=orthogonalEdgeStyle;rounded=0;orthogonalLoop=1;jettySize=auto;html=1;exitX=1;exitY=0.5;exitDx=0;exitDy=0;startArrow=classic;startFill=1;" edge="1" parent="VyEOUDzku1vB1zVTzXU4-28" source="VyEOUDzku1vB1zVTzXU4-3" target="VyEOUDzku1vB1zVTzXU4-5">
          <mxGeometry relative="1" as="geometry" />
        </mxCell>
        <mxCell id="VyEOUDzku1vB1zVTzXU4-17" style="edgeStyle=orthogonalEdgeStyle;rounded=0;orthogonalLoop=1;jettySize=auto;html=1;exitX=1;exitY=0.75;exitDx=0;exitDy=0;entryX=0.013;entryY=0.813;entryDx=0;entryDy=0;entryPerimeter=0;startArrow=classic;startFill=1;" edge="1" parent="VyEOUDzku1vB1zVTzXU4-28" source="VyEOUDzku1vB1zVTzXU4-4" target="VyEOUDzku1vB1zVTzXU4-5">
          <mxGeometry relative="1" as="geometry" />
        </mxCell>
        <mxCell id="VyEOUDzku1vB1zVTzXU4-18" value="XA" style="text;html=1;align=center;verticalAlign=middle;resizable=0;points=[];autosize=1;strokeColor=none;fillColor=none;" vertex="1" parent="VyEOUDzku1vB1zVTzXU4-28">
          <mxGeometry x="210" y="298" width="40" height="30" as="geometry" />
        </mxCell>
        <mxCell id="VyEOUDzku1vB1zVTzXU4-26" value="RM API" style="text;html=1;align=center;verticalAlign=middle;resizable=0;points=[];autosize=1;strokeColor=none;fillColor=none;" vertex="1" parent="VyEOUDzku1vB1zVTzXU4-28">
          <mxGeometry x="150" y="110" width="60" height="30" as="geometry" />
        </mxCell>
        <mxCell id="VyEOUDzku1vB1zVTzXU4-27" value="TX Interface" style="text;html=1;align=center;verticalAlign=middle;resizable=0;points=[];autosize=1;strokeColor=none;fillColor=none;" vertex="1" parent="VyEOUDzku1vB1zVTzXU4-28">
          <mxGeometry x="360" y="110" width="90" height="30" as="geometry" />
        </mxCell>
      </root>
    </mxGraphModel>
  </diagram>
</mxfile>
